#N canvas 342 265 971 736 10;
#X obj 44 58 unpackOSC;
#X obj 44 112 print OSCpack;
#X obj 44 33 udpreceive 12001;
#X obj 418 138 expr~ floor($v1);
#X obj 419 165 expr~ $v1%3;
#X obj 439 256 osc~ 440;
#X obj 551 210 wrap~;
#X obj 533 246 expr~ pow(abs($v1-1) \, 2);
#X obj 534 282 expr~ pow(abs($v1-0.5) \, 2) * 4;
#X obj 709 525 dac~, f 5;
#X obj 419 191 expr~ ($v1+1)*100*$v2;
#X obj 419 289 *~;
#X obj 670 315 tgl 15 0 empty empty empty 17 7 0 10 -262144 -1 -1 0
1;
#X obj 536 314 spigot~;
#X obj 600 315 spigot~;
#X obj 621 384 expr !$f1;
#X obj 649 414 tgl 15 0 empty empty empty 17 7 0 10 -262144 -1 -1 0
1;
#X obj 607 442 spigot~;
#X obj 464 99 *~ 8;
#X obj 708 166 expr~ floor($v1);
#X obj 709 193 expr~ $v1%3;
#X obj 729 284 osc~ 440;
#X obj 709 248 lop~ 8;
#X obj 708 134 *~ 8;
#X obj 707 100 expr~ fmod($v1+0.5 \, 1);
#X obj 464 58 phasor~ 1;
#X obj 709 317 *~;
#X obj 710 219 expr~ ($v1+1)*100*$v2;
#X obj 691 442 spigot~;
#X obj 544 151 sig~ 1;
#X obj 32 141 osc~ 440;
#X obj 148 118 line;
#X obj 148 70 bng 15 250 50 0 empty empty empty 17 7 0 10 -262144 -1
-1;
#X msg 148 92 1 \, 0 200;
#X floatatom 148 140 5 0 0 0 - - -, f 5;
#X obj 32 168 *~;
#X obj 31 230 dac~;
#X obj 32 192 lop~ 500;
#X obj 98 293 perk-bassdrum;
#X obj 87 491 perk-hihat;
#X obj 201 186 perk-snare;
#X obj 213 38 route /p5;
#X obj 287 87 print;
#X obj 144 239 bng 15 250 50 0 empty empty empty 17 7 0 10 -262144
-1 -1;
#X obj 44 672 dac~;
#X obj 117 197 sel 0 8;
#X obj 419 220 lop~ 8;
#X obj 310 460 bng 15 250 50 0 empty empty empty 17 7 0 10 -262144
-1 -1;
#X obj 300 144 bng 15 250 50 0 empty empty empty 17 7 0 10 -262144
-1 -1;
#X obj 665 486 *~ 0.5;
#X connect 0 0 1 0;
#X connect 0 0 32 0;
#X connect 0 0 41 0;
#X connect 2 0 0 0;
#X connect 3 0 4 0;
#X connect 4 0 10 0;
#X connect 5 0 11 0;
#X connect 6 0 7 0;
#X connect 6 0 8 0;
#X connect 7 0 14 0;
#X connect 7 0 26 1;
#X connect 8 0 13 0;
#X connect 10 0 46 0;
#X connect 11 0 17 0;
#X connect 12 0 14 1;
#X connect 12 0 15 0;
#X connect 14 0 11 1;
#X connect 15 0 13 1;
#X connect 16 0 17 1;
#X connect 16 0 28 1;
#X connect 17 0 49 0;
#X connect 18 0 3 0;
#X connect 18 0 6 0;
#X connect 19 0 20 0;
#X connect 20 0 27 0;
#X connect 21 0 26 0;
#X connect 22 0 21 0;
#X connect 23 0 19 0;
#X connect 24 0 23 0;
#X connect 25 0 18 0;
#X connect 25 0 24 0;
#X connect 26 0 28 0;
#X connect 27 0 22 0;
#X connect 28 0 49 0;
#X connect 29 0 10 1;
#X connect 29 0 27 1;
#X connect 30 0 35 0;
#X connect 31 0 34 0;
#X connect 32 0 33 0;
#X connect 33 0 31 0;
#X connect 35 0 37 0;
#X connect 37 0 36 0;
#X connect 37 0 36 1;
#X connect 38 0 44 0;
#X connect 38 0 44 1;
#X connect 39 0 44 0;
#X connect 39 0 44 1;
#X connect 40 0 44 0;
#X connect 40 0 44 1;
#X connect 41 0 45 0;
#X connect 43 0 38 0;
#X connect 45 0 43 0;
#X connect 45 1 40 0;
#X connect 45 2 39 0;
#X connect 46 0 5 0;
#X connect 47 0 39 0;
#X connect 48 0 40 0;
#X connect 49 0 9 0;
#X connect 49 0 9 1;
